# xmcd
#
# Track frame offsets: 
#        150
#        4472
#        12560
#        38005
#        71577
#        87117
#        112820
#        136620
#        157290
#        200910
#        219915
#        262285
#        285210
#
# Disc length: 4406 seconds
#
# Revision: 2
# Processed by: cddbd v1.5.2PL0 Copyright (c) Steve Scherf et al.
# Submitted via: ExactAudioCopy v1.0b3
#
DISCID=b711340d
DTITLE=Lazar Berman - Russian Piano School
DYEAR=1959
DGENRE=Classical
TTITLE0=Etudes d'execution transcendante - I. Prelude (Presto)
TTITLE1=Etudes d'execution transcendante - II. Molto vivace
TTITLE2=Etudes d'execution transcendante - III. Paysage (Poco adagio)
TTITLE3=Etudes d'execution transcendante - IV. Mazeppa (Allegro)
TTITLE4=Etudes d'execution transcendante - V. Feux follets (Allegretto
TTITLE4=)
TTITLE5=Etudes d'execution transcendante - VI. Vision (Lento)
TTITLE6=Etudes d'execution transcendante - VII. Eroica (Allegro)
TTITLE7=Etudes d'execution transcendante - VIII. Wilde Jagd (Presto fu
TTITLE7=rioso)
TTITLE8=Etudes d'execution transcendante - IX. Ricordanza (Andantino)
TTITLE9=Etudes d'execution transcendante - X. Allegro agitato molto
TTITLE10=Etudes d'execution transcendante - XI. Harmonies du soir (And
TTITLE10=antino)
TTITLE11=Etudes d'execution transcendante - XII. Chasse neige (Andante
TTITLE11=con moto)
TTITLE12=Liszt Hungarian Rhapsody No. 9 in E-flat Major
EXTD=
EXTT0=
EXTT1=
EXTT2=
EXTT3=
EXTT4=
EXTT5=
EXTT6=
EXTT7=
EXTT8=
EXTT9=
EXTT10=
EXTT11=
EXTT12=
PLAYORDER=
